<?xml version="1.0" encoding="UTF-8"?>
<svg id="Layer_1" data-name="Layer 1" xmlns="http://www.w3.org/2000/svg" width="44.28mm" height="44.28mm" viewBox="0 0 125.51 125.51">
  <defs>
    <style>
      .cls-1 {
        fill: none;
      }

      .cls-2 {
        fill: #a83951;
      }

      .cls-3 {
        fill: #7a182c;
      }

      .cls-4 {
        fill: #9b2133;
      }

      .cls-5 {
        fill: #fffcdf;
      }
    </style>
  </defs>
  <rect class="cls-1" width="125.51" height="125.51"/>
  <rect class="cls-5" width="125.51" height="125.51"/>
  <g id="Layer_2" data-name="Layer 2">
    <polygon class="cls-3" points="9.72 19.34 11.72 65.34 15.42 87.54 23.12 104.04 36.82 115.24 54.52 121.14 67.42 121.14 81.72 117.74 93.22 111.74 99.52 105.44 74.42 72.64 46.62 44.64 22.82 25.54 9.72 19.34"/>
    <polygon class="cls-4" points="62.32 58.14 85.92 37.94 104.92 23.44 114.82 17.24 114.22 42.44 112.42 66.84 108.12 90.24 99.52 105.44 81.92 83.84 62.32 58.14"/>
    <polygon class="cls-2" points="34.12 34.04 46.52 15.64 54.62 8.64 63.52 5.14 77.52 15.14 86.32 27.14 89.92 34.04 62.32 58.14 34.12 34.04"/>
  </g>
  <g id="Layer_1-2" data-name="Layer 1">
    <path d="M125.51,125.51V0H0v125.51h125.51ZM65.02,52.84c-.9.9-1.8,1.7-2.6,2.6-.9-.9-1.7-1.7-2.6-2.6-7.9-7.8-15.2-14.2-21.6-19.4,1.1-2.3,3.6-7.1,8.6-13.5,5.7-7.3,12.9-10.9,15.5-12.1,2.6,1.1,9.7,4.8,15.4,12.1,5.1,6.6,7.6,11.4,8.7,13.6-6.4,5.2-13.6,11.6-21.4,19.3ZM111.82,22.54c-.1,9.1-.6,27.9-2.2,42.5-1.6,14.6-3.5,26.5-9.6,35.6-4.4-6.6-15.6-22.3-33.4-40.8.9-.9,1.7-1.7,2.6-2.6,19.3-19.1,35.2-30.1,42.6-34.7ZM55.52,57.14c22.9,22.5,36.7,42.7,40.4,48.3-1.3,1.4-2.8,2.6-4.5,3.8-13.3,9.6-29,8.9-29.1,8.9h-.4c-.2,0-15.8.7-29.1-8.9-13.3-9.6-15.9-24.4-18.1-44.2-1.6-14.6-1.9-33.5-2-42.6,7.4,4.6,23.4,15.6,42.8,34.7ZM125.51,0v125.51H0V0h125.51ZM67.42,123.94c6.4-.5,17.5-2.6,27.6-9.9,15.3-11,18.3-27.7,20.6-48.5,2.2-20.2,2.3-48.2,2.3-48.5v-5l-4.4,2.4c-.5.3-9,4.9-22.2,15.2-1.5-2.9-4.1-7.5-8.8-13.5C74.42,5.64,63.82,1.84,63.32,1.64l-1-.4-1,.4c-.4.2-11,4-19.2,14.5-4.6,5.9-7.2,10.5-8.7,13.4-13.2-10.3-21.7-14.8-22.2-15.1l-4.4-2.3v4.9c0,.3-.2,28.3,2,48.5,2.3,20.7,5.3,37.5,20.6,48.5,10.3,7.4,21.5,9.4,27.9,9.9h10.1Z"/>
  </g>
</svg>