<?xml version="1.0" encoding="UTF-8"?>
<svg id="Layer_1" data-name="Layer 1" xmlns="http://www.w3.org/2000/svg" width="123.47mm" height="123.47mm" viewBox="0 0 350 350">
  <defs>
    <style>
      .cls-1 {
        fill: #beda82;
      }

      .cls-2 {
        fill: #a83951;
      }

      .cls-3 {
        fill: #7a182c;
      }

      .cls-4 {
        fill: #9b2133;
      }
    </style>
  </defs>
  <g id="Layer_2" data-name="Layer 2">
    <polygon class="cls-3" points="125 118.2 127 164.2 130.7 186.4 138.4 202.9 152.1 214.1 169.8 220 182.7 220 197 216.6 208.5 210.6 214.8 204.3 189.7 171.5 161.9 143.5 138.1 124.4 125 118.2"/>
    <polygon class="cls-4" points="177.6 157 201.2 136.8 220.2 122.3 230.1 116.1 229.5 141.3 227.7 165.7 223.4 189.1 214.8 204.3 197.2 182.7 177.6 157"/>
    <polygon class="cls-2" points="149.4 132.9 161.8 114.5 169.9 107.5 178.8 104 192.8 114 201.6 126 205.2 132.9 177.6 157 149.4 132.9"/>
  </g>
  <g id="Layer_3" data-name="Layer 3">
    <path class="cls-1" d="M48.8,118.5s.5,34.5,2.6,55.6,3.9,48,27.1,75.3c23.2,27.3,39.2,35.7,61.7,51.3,18.1,12.5,34.9,24.4,34.9,24.4l-2.6-16s-2.4-44.5-47.4-87.3c-54.5-51.9-76.3-103.3-76.3-103.3Z"/>
    <path class="cls-1" d="M315.3,103.5s-4.5,33.3-11.5,53.4c-4,11.5-18.5,44.2-41.7,71.5s-30.2,34.4-50.3,50.4c-17.2,13.7-31.7,29-31.7,29l2.6-16s8.1-66.5,53.1-109.4c54.5-51.8,79.5-78.9,79.5-78.9Z"/>
  </g>
  <g id="Layer_1-2" data-name="Layer 1">
    <path d="M106.2,135.2v7.7c-11.1-5.9-21.9-8.8-32.5-8.8-11.3,0-20.8,3.9-28.4,11.6-7.6,7.7-11.4,17.3-11.4,28.9s3.8,21.3,11.5,28.8,17.4,11.3,29.3,11.3c9.9,0,20.8-3.1,32.5-9.3v7.3c-10.8,5.7-21.6,8.6-32.3,8.6-13.9,0-25.5-4.5-34.7-13.4-9.3-8.9-13.9-20-13.9-33.3s4.7-24.5,14.2-33.5c9.4-9,20.7-13.5,33.8-13.5,10.1,0,20.8,2.5,31.9,7.6Z"/>
    <path d="M246.2,128.8h31.9c16.2,0,28.5,4.2,37,12.7s12.8,19.5,12.8,32.9-4.2,24.1-12.6,32.7c-8.4,8.6-20.4,12.9-35.9,12.9h-33.2v-91.2h0ZM253.2,134.6v79.5h25.7c11.8,0,21.6-3.6,29.5-10.9s11.8-16.9,11.8-28.8-3.9-21.3-11.6-28.7c-7.8-7.4-17.8-11.1-30.1-11.1h-25.3Z"/>
    <path d="M175,0C78.5,0,0,78.5,0,175s78.5,175,175,175,175-78.5,175-175S271.5,0,175,0ZM180.3,151.7c-.9.9-1.8,1.7-2.6,2.6-.9-.9-1.7-1.7-2.6-2.6-7.9-7.8-15.2-14.2-21.6-19.4,1.1-2.3,3.6-7.1,8.6-13.5,5.7-7.3,12.9-10.9,15.5-12.1,2.6,1.1,9.7,4.8,15.4,12.1,5.1,6.6,7.6,11.4,8.7,13.6-6.4,5.2-13.6,11.6-21.4,19.3ZM227.1,121.4c-.1,9.1-.6,27.9-2.2,42.5-1.6,14.6-3.5,26.5-9.6,35.6-4.4-6.6-15.6-22.3-33.4-40.8.9-.9,1.7-1.7,2.6-2.6,19.3-19.1,35.2-30.1,42.6-34.7ZM170.8,156c22.9,22.5,36.7,42.7,40.4,48.3-1.3,1.4-2.8,2.6-4.5,3.8-13.3,9.6-29,8.9-29.1,8.9h-.4c-.2,0-15.8.7-29.1-8.9-13.3-9.6-15.9-24.4-18.1-44.2-1.6-14.6-1.9-33.5-2-42.6,7.4,4.6,23.4,15.6,42.8,34.7ZM182.7,340.8v-118c6.4-.5,17.5-2.6,27.6-9.9,15.3-11,18.3-27.7,20.6-48.5,2.2-20.2,2.3-48.2,2.3-48.5v-5l-4.4,2.4c-.5.3-9,4.9-22.2,15.2-1.5-2.9-4.1-7.5-8.8-13.5-8.1-10.5-18.7-14.3-19.2-14.5l-1-.4-1,.4c-.4.2-11,4-19.2,14.5-4.6,5.9-7.2,10.5-8.7,13.4-13.2-10.3-21.7-14.8-22.2-15.1l-4.4-2.3v4.9c0,.3-.2,28.3,2,48.5,2.3,20.7,5.3,37.5,20.6,48.5,10.3,7.4,21.5,9.4,27.9,9.9v118.2c-90.4-1.3-163.5-75.3-163.5-166S83.6,9,175.1,9s166,74.5,166,166c-.1,89-70.4,161.8-158.4,165.8Z"/>
  </g>
</svg>