<svg xmlns="http://www.w3.org/2000/svg" viewBox="0 0 512 512"><!--!Font Awesome Free 6.7.2 by @fontawesome - https://fontawesome.com License - https://fontawesome.com/license/free Copyright 2025 Fonticons, Inc.--><path d="M507.7 109.1c-2.2-9-13.5-12.1-20.1-5.5l-74.4 74.4-67.9-11.3-11.3-67.9 74.4-74.4c6.6-6.6 3.4-17.9-5.7-20.2-47.4-11.7-99.6 .9-136.6 37.9-39.6 39.6-50.6 97.1-34.1 147.2L18.7 402.8c-25 25-25 65.5 0 90.5 25 25 65.5 25 90.5 0l213.2-213.2c50.1 16.7 107.5 5.7 147.4-34.2 37.1-37.1 49.7-89.3 37.9-136.7zM64 472c-13.3 0-24-10.8-24-24 0-13.3 10.8-24 24-24s24 10.7 24 24c0 13.3-10.8 24-24 24z"/></svg>